<?xml version="1.0" standalone="no"?>
<!DOCTYPE svg PUBLIC "-//W3C//DTD SVG 20010904//EN"
 "http://www.w3.org/TR/2001/REC-SVG-20010904/DTD/svg10.dtd">
<svg version="1.0" xmlns="http://www.w3.org/2000/svg"
 width="331.000000pt" height="231.000000pt" viewBox="0 0 331.000000 231.000000"
 preserveAspectRatio="xMidYMid meet">
<metadata>
Created by potrace 1.16, written by Peter Selinger 2001-2019
</metadata>
<g transform="translate(0.000000,231.000000) scale(0.100000,-0.100000)"
fill="#000000" stroke="none">
<path d="M30 1160 l0 -1150 1625 0 1625 0 0 1150 0 1150 -1625 0 -1625 0 0
-1150z m468 401 c37 -77 70 -140 73 -140 3 -1 36 62 74 139 l68 140 44 0 43 0
0 -235 0 -235 -45 0 -45 0 -1 153 0 152 -57 -112 c-50 -99 -60 -113 -82 -113
-22 0 -32 14 -82 113 l-57 112 0 -152 -1 -153 -45 0 -45 0 0 235 0 235 45 0
46 0 67 -139z m678 -86 c35 -121 64 -226 64 -232 0 -9 -15 -13 -44 -13 l-43 0
-15 53 -15 52 -65 3 -65 3 -15 -53 -15 -53 -46 -3 c-26 -2 -47 1 -47 6 0 5 22
83 49 173 27 90 57 192 66 227 l18 63 55 -3 55 -3 63 -220z m319 214 c107 -29
157 -155 124 -309 -13 -59 -49 -107 -97 -127 -19 -8 -75 -17 -123 -20 l-89 -6
0 237 0 236 73 0 c39 0 90 -5 112 -11z m505 -19 l0 -30 -95 0 -95 0 0 -65 0
-64 73 -3 72 -3 0 -30 c0 -30 0 -30 -60 -32 -33 -1 -66 -2 -72 -2 -9 -1 -13
-22 -13 -71 l0 -69 93 -3 92 -3 0 -30 0 -30 -137 -3 -138 -3 0 236 0 235 140
0 140 0 0 -30z m352 -156 c3 -181 4 -186 27 -205 30 -25 63 -24 87 2 17 19 19
41 22 205 l3 184 45 0 44 0 0 -182 c0 -207 -8 -237 -70 -270 -44 -23 -130 -24
-176 -2 -64 31 -74 67 -74 274 l0 180 44 0 45 0 3 -186z m591 154 c43 -34 61
-84 54 -149 -11 -89 -60 -129 -161 -129 l-56 0 0 -80 0 -80 -45 0 -45 0 0 236
0 236 108 -3 c100 -4 112 -6 145 -31z"/>
<path d="M1409 1634 c0 -7 0 -241 1 -321 0 -23 59 -15 85 11 30 30 38 74 34
176 -4 69 -7 83 -29 105 -25 25 -89 45 -91 29z"/>
<path d="M2780 1546 l0 -96 40 0 c58 0 80 26 80 93 -1 66 -16 85 -74 93 l-46
7 0 -97z"/>
</g>
</svg>
